HIERARCHY
ROOT Hips
{
  OFFSET 0 0.240689 0
  CHANNELS 6 Xposition Yposition Zposition Zrotation Xrotation Yrotation
  JOINT Bip01_Spine0
  {
    OFFSET 0 -24.7459 49.7988
    CHANNELS 6 Xposition Yposition Zposition Zrotation Xrotation Yrotation
    JOINT Bip01_Pelvis
    {
      OFFSET 0 0 0
      CHANNELS 6 Xposition Yposition Zposition Zrotation Xrotation Yrotation
      JOINT Bip01_Spine0_Tail
      {
        OFFSET -6.47486 -3.86022 0
        CHANNELS 6 Xposition Yposition Zposition Zrotation Xrotation Yrotation
        JOINT Bip01_Spine0_Tail1
        {
          OFFSET 10.3837 -0.00825882 0
          CHANNELS 6 Xposition Yposition Zposition Zrotation Xrotation Yrotation
          JOINT Bip01_Spine0_Tail2
          {
            OFFSET 10.3837 -0.00826263 0
            CHANNELS 6 Xposition Yposition Zposition Zrotation Xrotation Yrotation
            JOINT Bip01_Spine0_Tail3
            {
              OFFSET 10.3837 -0.00825882 0
              CHANNELS 6 Xposition Yposition Zposition Zrotation Xrotation Yrotation
              JOINT Bip01_Spine0_Tail4
              {
                OFFSET 10.3837 -0.00826263 0
                CHANNELS 6 Xposition Yposition Zposition Zrotation Xrotation Yrotation
                End Site
                {
                  OFFSET 0 0 0
                }
              }
            }
          }
        }
      }
      JOINT Bip01_R_Thigh
      {
        OFFSET 0 -1.52588e-005 -8.75617
        CHANNELS 6 Xposition Yposition Zposition Zrotation Xrotation Yrotation
        JOINT Bip01_R_Calf
        {
          OFFSET 19.7638 0 0
          CHANNELS 6 Xposition Yposition Zposition Zrotation Xrotation Yrotation
          JOINT Bip01_R_Foot
          {
            OFFSET 18.6534 0 0
            CHANNELS 6 Xposition Yposition Zposition Zrotation Xrotation Yrotation
            JOINT Bip01_R_Toe0
            {
              OFFSET 5.09145 13.9567 0
              CHANNELS 6 Xposition Yposition Zposition Zrotation Xrotation Yrotation
              JOINT Bip01_R_Toe01
              {
                OFFSET 4.28803 0 0
                CHANNELS 6 Xposition Yposition Zposition Zrotation Xrotation Yrotation
                JOINT Bip01_R_Toe02
                {
                  OFFSET 3.85801 0 0
                  CHANNELS 6 Xposition Yposition Zposition Zrotation Xrotation Yrotation
                  End Site
                  {
                    OFFSET 0 0 0
                  }
                }
              }
            }
          }
        }
      }
      JOINT Bip01_L_Thigh
      {
        OFFSET 0 1.52588e-005 8.75617
        CHANNELS 6 Xposition Yposition Zposition Zrotation Xrotation Yrotation
        JOINT Bip01_L_Calf
        {
          OFFSET 19.7638 0 0
          CHANNELS 6 Xposition Yposition Zposition Zrotation Xrotation Yrotation
          JOINT Bip01_L_Foot
          {
            OFFSET 18.6534 0 0
            CHANNELS 6 Xposition Yposition Zposition Zrotation Xrotation Yrotation
            JOINT Bip01_L_Toe0
            {
              OFFSET 5.09144 13.9567 0
              CHANNELS 6 Xposition Yposition Zposition Zrotation Xrotation Yrotation
              JOINT Bip01_L_Toe01
              {
                OFFSET 4.28802 0 0
                CHANNELS 6 Xposition Yposition Zposition Zrotation Xrotation Yrotation
                JOINT Bip01_L_Toe02
                {
                  OFFSET 3.85801 0 0
                  CHANNELS 6 Xposition Yposition Zposition Zrotation Xrotation Yrotation
                  End Site
                  {
                    OFFSET 0 0 0
                  }
                }
              }
            }
          }
        }
      }
      JOINT Bip01_Spine
      {
        OFFSET 9.14835 -0.00640869 -1.1e-005
        CHANNELS 6 Xposition Yposition Zposition Zrotation Xrotation Yrotation
        JOINT Bip01_Spine1
        {
          OFFSET 8.04366 -0.00638199 0
          CHANNELS 6 Xposition Yposition Zposition Zrotation Xrotation Yrotation
          JOINT Bip01_Spine2
          {
            OFFSET 8.04367 -0.00639343 0
            CHANNELS 6 Xposition Yposition Zposition Zrotation Xrotation Yrotation
            JOINT Bip01_Spine3
            {
              OFFSET 8.04304 -0.00831222 0
              CHANNELS 6 Xposition Yposition Zposition Zrotation Xrotation Yrotation
              JOINT Bip01_Neck
              {
                OFFSET 10.6685 1.06813 0
                CHANNELS 6 Xposition Yposition Zposition Zrotation Xrotation Yrotation
                JOINT Bip01_R_Clavicle
                {
                  OFFSET -3.21661 -4.89635 -9.04802
                  CHANNELS 6 Xposition Yposition Zposition Zrotation Xrotation Yrotation
                  JOINT Bip01_R_UpperArm
                  {
                    OFFSET 19.0492 0 0
                    CHANNELS 6 Xposition Yposition Zposition Zrotation Xrotation Yrotation
                    JOINT Bip01_R_Forearm
                    {
                      OFFSET 10.3706 0 0
                      CHANNELS 6 Xposition Yposition Zposition Zrotation Xrotation Yrotation
                      JOINT Bip01_R_Hand
                      {
                        OFFSET 22.8632 0 0
                        CHANNELS 6 Xposition Yposition Zposition Zrotation Xrotation Yrotation
                        JOINT Bip01_R_Finger0
                        {
                          OFFSET 6.48259 0.103651 0.504496
                          CHANNELS 6 Xposition Yposition Zposition Zrotation Xrotation Yrotation
                          JOINT Bip01_R_Finger01
                          {
                            OFFSET 3.66847 0 0
                            CHANNELS 6 Xposition Yposition Zposition Zrotation Xrotation Yrotation
                            End Site
                            {
                              OFFSET 0 0 0
                            }
                          }
                        }
                      }
                    }
                  }
                }
                JOINT Bip01_L_Clavicle
                {
                  OFFSET -3.21661 -4.89641 9.04797
                  CHANNELS 6 Xposition Yposition Zposition Zrotation Xrotation Yrotation
                  JOINT Bip01_L_UpperArm
                  {
                    OFFSET 19.0492 0 0
                    CHANNELS 6 Xposition Yposition Zposition Zrotation Xrotation Yrotation
                    JOINT Bip01_L_Forearm
                    {
                      OFFSET 10.3706 0 0
                      CHANNELS 6 Xposition Yposition Zposition Zrotation Xrotation Yrotation
                      JOINT Bip01_L_Hand
                      {
                        OFFSET 22.8631 0 0
                        CHANNELS 6 Xposition Yposition Zposition Zrotation Xrotation Yrotation
                        JOINT Bip01_L_Finger0
                        {
                          OFFSET 6.48257 0.103655 -0.504492
                          CHANNELS 6 Xposition Yposition Zposition Zrotation Xrotation Yrotation
                          JOINT Bip01_L_Finger01
                          {
                            OFFSET 3.66844 0 0
                            CHANNELS 6 Xposition Yposition Zposition Zrotation Xrotation Yrotation
                            End Site
                            {
                              OFFSET 0 0 0
                            }
                          }
                        }
                      }
                    }
                  }
                }
                JOINT Bip01_Neck1
                {
                  OFFSET 7.52459 -0.00656509 0
                  CHANNELS 6 Xposition Yposition Zposition Zrotation Xrotation Yrotation
                  JOINT Bip01_Neck2
                  {
                    OFFSET 8.4783 -0.00588226 0
                    CHANNELS 6 Xposition Yposition Zposition Zrotation Xrotation Yrotation
                    JOINT Bip01_Head
                    {
                      OFFSET 8.41606 0 0
                      CHANNELS 6 Xposition Yposition Zposition Zrotation Xrotation Yrotation
                      JOINT EyesBlue
                      {
                        OFFSET 0 0 0
                        CHANNELS 6 Xposition Yposition Zposition Zrotation Xrotation Yrotation
                        JOINT EyesBlue_2
                        {
                          OFFSET 0 -0.500007 0
                          CHANNELS 6 Xposition Yposition Zposition Zrotation Xrotation Yrotation
                          End Site
                          {
                            OFFSET 0 0 0
                          }
                        }
                      }
                      JOINT Bip01_Head2_Eyeleds
                      {
                        OFFSET 6.52751 7.61746 2.2e-005
                        CHANNELS 6 Xposition Yposition Zposition Zrotation Xrotation Yrotation
                        End Site
                        {
                          OFFSET 0 0 0
                        }
                      }
                      JOINT Bip01_Head_Muzzle
                      {
                        OFFSET 2.88628 13.9448 3.88994
                        CHANNELS 6 Xposition Yposition Zposition Zrotation Xrotation Yrotation
                        End Site
                        {
                          OFFSET 0 0 0
                        }
                      }
                      JOINT Bip01_Head1_Jaw
                      {
                        OFFSET 0.271065 1.32405 0
                        CHANNELS 6 Xposition Yposition Zposition Zrotation Xrotation Yrotation
                        JOINT _Bip01_Head11_TungeControler
                        {
                          OFFSET 4.61616 5.82872 0
                          CHANNELS 6 Xposition Yposition Zposition Zrotation Xrotation Yrotation
                          JOINT _Bip01_Ponytail3_tunge
                          {
                            OFFSET 5.17785 2.98805 0
                            CHANNELS 6 Xposition Yposition Zposition Zrotation Xrotation Yrotation
                            JOINT Bip01_Ponytail31
                            {
                              OFFSET 5.57569 0 0
                              CHANNELS 6 Xposition Yposition Zposition Zrotation Xrotation Yrotation
                              JOINT Bip01_Ponytail32
                              {
                                OFFSET 2.93165 0 0
                                CHANNELS 6 Xposition Yposition Zposition Zrotation Xrotation Yrotation
                                JOINT Bip01_Ponytail3Nub
                                {
                                  OFFSET 3.30155 0 0
                                  CHANNELS 6 Xposition Yposition Zposition Zrotation Xrotation Yrotation
                                  End Site
                                  {
                                    OFFSET 0 0 0
                                  }
                                }
                              }
                            }
                          }
                        }
                        JOINT Bip01_Head_JawNub
                        {
                          OFFSET 15.5776 -0.000389099 0
                          CHANNELS 6 Xposition Yposition Zposition Zrotation Xrotation Yrotation
                          End Site
                          {
                            OFFSET 0 0 0
                          }
                        }
                      }
                      JOINT Bip01_Ponytail2
                      {
                        OFFSET 9.40334 1.03973 -6.51764
                        CHANNELS 6 Xposition Yposition Zposition Zrotation Xrotation Yrotation
                        JOINT Bip01_Ponytail21
                        {
                          OFFSET 2.77018 -0.00640106 1.33514e-005
                          CHANNELS 6 Xposition Yposition Zposition Zrotation Xrotation Yrotation
                          End Site
                          {
                            OFFSET 0 0 0
                          }
                        }
                      }
                      JOINT Bip01_Ponytail1
                      {
                        OFFSET 9.40368 1.03969 6.51768
                        CHANNELS 6 Xposition Yposition Zposition Zrotation Xrotation Yrotation
                        JOINT Bip01_Ponytail11
                        {
                          OFFSET 2.77018 -0.00640487 0
                          CHANNELS 6 Xposition Yposition Zposition Zrotation Xrotation Yrotation
                          End Site
                          {
                            OFFSET 0 0 0
                          }
                        }
                      }
                    }
                  }
                }
              }
            }
          }
        }
      }
    }
  }
}
MOTION
Frames:	4
Frame Time:	0.0333333
-5.54523 0.449582 0 -0 -90 -0 0 -28.7019 48.154 88.7407 -0.00620327 80.9824 0 0 0 -90 -3.50835e-015 -90 -6.47925 -3.85825 -7e-006 172.709 -9.05277e-005 8.85504e-005 10.3852 -0.008068 -6.44009e-011 12.5827 9.43778e-007 -4.46272e-005 10.3851 -0.008083 8.24905e-010 12.2478 2.08787e-006 2.92404e-005 10.3851 -0.008079 5.36109e-010 12.2478 1.42434e-005 2.58066e-005 10.3851 -0.008081 1.35243e-010 12.2478 3.0484e-005 2.22034e-005 1.3e-005 -1.1e-005 -8.75617 -108.779 -3.22167 159.952 19.7638 -2e-006 5.32907e-014 -69.8157 3.03056e-006 7.71349e-006 18.6534 3e-006 -1.77636e-014 -33.0215 -1.42186 -5.35842 5.09143 13.9567 -3.13873e-006 128.206 10.3597 7.90975 4.288 -3e-006 1.52767e-013 42 -1.86716e-005 6.98708e-007 3.85799 6.21724e-015 7.10543e-015 -23.5 0.000666947 0.00101798 -1.1e-005 1.1e-005 8.75617 -123.108 2.6804 -162.648 19.7638 1e-006 2.84217e-014 -66.5474 -6.26522e-006 1.49211e-005 18.6534 -3.55271e-015 0 -23.0841 -0.799293 6.80626 5.09143 13.9567 1.54021e-007 100.534 -10.3597 -7.90973 4.288 -1.68754e-014 0 42 8.83857e-005 -2.44333e-006 3.85799 2.06501e-014 0 -45.0006 0.000433741 0.00114265 9.14708 -0.006278 1.2e-005 -11.482 -0.00022182 -9.06827e-005 8.04343 -0.006404 4.98144e-011 -2.02761 9.8173e-006 5.33242e-006 8.04383 -0.006393 4.77396e-011 1.4458 9.59143e-006 -1.75393e-005 8.04153 -0.008068 6.2097e-011 -14.8392 -6.88348e-007 4.10669e-005 10.6672 1.06873 -0.00115901 -27.2652 11.1736 6.34983 -1.06163 -7.1768 -7.97035 -152.25 -61.5932 130.735 19.0492 7.78044e-013 -7e-006 93.4817 40.5235 -106.503 10.3706 7.10543e-015 2e-006 -69.0216 -3.17111e-005 -2.03679e-006 22.8631 3e-006 -9.99999e-007 22.3143 8.01961 -10.0925 6.48256 0.103653 0.504496 -28.8505 -12.0849 -9.77753 3.66843 -7.10543e-015 7.10543e-015 40.107 -9.28585e-006 1.90646e-005 -3.02506 -3.67017 9.67372 -165.331 87.1737 -117.491 19.0492 -9.99999e-007 1.1e-005 90.2572 -6.34574 96.6415 10.3706 1e-006 1.42109e-014 -90.302 -4.21536e-006 -1.6853e-005 22.8631 -3e-006 2.98428e-013 30.6966 -13.8622 14.3169 6.48257 0.103653 -0.504495 -28.8505 12.0849 9.77752 3.66843 -3e-006 9.99998e-007 40.107 4.13084e-005 -3.26254e-005 7.52779 -0.006416 -0.001305 14.3981 11.1736 6.34972 8.47584 -0.006526 -0.0013 6.89811 11.1644 -5.24917 8.41604 3e-006 -3e-006 -67.7232 -13.0989 -5.27345 6.39489e-014 7e-006 1.7053e-013 -23.1098 1.37701e-015 90 -9.06062e-006 -0.499998 -3.75802e-006 5.03772e-008 90 90 0 0 0 -99.049 1.52588e-005 -180 7.07335 14.9586 3.8804 -22.989 1.37021e-015 90 0 0 0 -62.734 -3.05176e-005 -180 0 0 0 -120.289 1.87299e-005 -2.57689e-005 0 0 0 133.74 6.3783e-005 2.65757e-006 0 0 0 1.83152 -1.82011e-005 1.95726e-006 0 0 0 -17.65 -1.69236e-005 -1.30399e-005 0 0 0 -26.1943 -1.68003e-005 -1.06202e-005 15.5776 -0.000396 -4.99979e-006 1.59028e-015 9.93923e-016 -3.97569e-015 9.4055 1.04068 -6.5157 55.0415 -35.4372 85.8915 2.76858 -0.006111 -0.001365 -12.2016 12.3265 -1.9868 9.40585 1.04064 6.51574 55.0412 35.4373 -85.8915 2.76859 -0.006115 0.001365 -12.2016 -12.3265 1.98686 
-6.40179 0.449582 0 -0 -90 -0 -0.949625 -28.7019 47.092 88.7407 -0.00620767 75.2984 0 0 0 -90 -3.50835e-015 -90 -6.47925 -3.85825 -7e-006 173.241 -0.0166169 -0.187052 10.3852 -0.008068 -2.25233e-011 13.1141 -0.016528 -0.187175 10.3851 -0.008083 3.49753e-010 12.7793 -0.016505 -0.187106 10.3851 -0.008079 2.52049e-009 12.7793 -0.016523 -0.187106 10.3851 -0.008081 2.64532e-010 12.7793 -0.0164956 -0.187112 1.3e-005 -1.1e-005 -8.75617 -105.08 -2.7437 158.341 19.7638 -2e-006 6.03961e-014 -72.8905 1.99456e-006 8.21768e-006 18.6534 3e-006 1.06581e-014 -29.167 -1.45949 -5.63619 5.09143 13.9567 -2.89223e-006 126.039 11.2834 9.23703 4.288 -3e-006 1.91847e-013 42 -2.8017e-005 1.14872e-006 3.85799 -3.55271e-015 -3.55271e-015 -23.5 0.000675507 0.00102151 -1.1e-005 1.1e-005 8.75617 -120.625 3.39549 -162.529 19.7638 1e-006 2.4869e-014 -70.8413 -7.2482e-006 1.43346e-005 18.6534 0 -3.55271e-015 -20.3554 0.303477 8.4933 5.09143 13.9567 7.47116e-008 99.8494 -10.3531 -7.16439 4.288 1.77636e-015 -7.10543e-015 42 9.07639e-005 -2.36118e-006 3.85799 -3.10862e-015 1.06581e-014 -45.0006 0.000432093 0.0011409 9.14708 -0.006278 1.2e-005 -13.6219 -0.000218456 -9.89187e-005 8.04343 -0.006404 2.99814e-011 0.777484 1.0154e-005 9.8847e-006 8.04383 -0.006393 3.004e-011 4.25091 8.69908e-006 -1.79779e-005 8.04153 -0.008068 3.65779e-011 -12.0341 2.94183e-006 3.41347e-005 10.6672 1.06873 -0.001159 -24.6023 9.26304 4.9803 -1.48412 -6.81784 -8.2143 -154.492 -61.3618 130.97 19.0492 9.76996e-013 -7e-006 97.1034 40.2743 -108.006 10.3706 7.10543e-015 2e-006 -69.3529 -2.9256e-005 -2.24779e-006 22.8631 3e-006 -9.99999e-007 21.9415 8.18306 -7.82221 6.48256 0.103653 0.504496 -28.8505 -12.0849 -9.77753 3.66843 2.13163e-014 0 40.107 -1.47811e-006 1.25363e-005 -3.03457 -3.90505 9.57812 -163.641 84.8517 -118.916 19.0492 -9.99999e-007 1.1e-005 94.2464 -9.22172 97.8203 10.3706 1e-006 -3.55271e-015 -87.5094 -2.97631e-006 -1.63812e-005 22.8631 -3e-006 4.05009e-013 38.1452 -10.7736 12.1251 6.48257 0.103653 -0.504495 -28.4182 12.1574 9.68674 3.66843 -3e-006 1e-006 40.107 5.03336e-006 -1.67539e-006 7.52779 -0.006416 -0.001305 9.40448 8.93607 5.60077 8.47584 -0.006526 -0.0013 10.846 8.9994 -4.61142 8.41604 3e-006 -3e-006 -73.7423 -7.31829 -4.82088 -8.52652e-014 7e-006 1.35003e-013 -23.1098 1.37701e-015 90 -9.06414e-006 -0.499998 -3.76098e-006 5.50616e-008 90 90 0 0 0 -99.049 1.52588e-005 -180 6.70539 14.8433 3.87909 -22.989 1.37021e-015 90 0 0 0 -66.6204 -9.15528e-005 -180 0 0 0 -120.289 4.24383e-005 -6.7676e-005 0 0 0 133.74 1.07011e-005 2.1017e-006 0 0 0 1.83152 -4.22111e-006 2.77733e-007 0 0 0 -17.65 6.48029e-005 -1.35359e-006 0 0 0 -26.1943 -5.32618e-005 -3.04829e-005 15.5776 -0.000396 -4.99946e-006 7.95139e-016 3.27995e-015 -0 9.4055 1.04068 -6.5157 55.1768 -35.5471 86.0261 2.76858 -0.006111 -0.001365 -12.3099 12.2125 -1.90766 9.40585 1.04064 6.51574 55.1765 35.5473 -86.0262 2.76859 -0.006115 0.001365 -12.3099 -12.2125 1.90773 
-7.25836 0.449582 0 -0 -90 -0 -2.07151 -28.7019 45.8998 88.7407 -0.0061841 69.1101 0 0 0 -90 -3.50835e-015 -90 -6.47925 -3.85825 -7e-006 173.949 -0.0520495 -0.550219 10.3852 -0.008068 1.10632e-011 13.8216 -0.0519612 -0.550336 10.3851 -0.008083 3.32598e-010 13.4867 -0.0518658 -0.550282 10.3851 -0.008079 1.29824e-008 13.4867 -0.0520275 -0.550264 10.3851 -0.008081 6.55615e-010 13.4867 -0.051933 -0.550287 1.3e-005 -1.1e-005 -8.75617 -100.952 -2.12821 156.245 19.7638 -2e-006 3.19744e-014 -75.9406 1.50953e-006 8.61489e-006 18.6534 3e-006 3.19744e-014 -25.503 -2.04157 -5.95816 5.09143 13.9567 -2.69168e-006 125.173 12.384 10.2872 4.288 -3e-006 2.27374e-013 42 -3.65366e-005 1.71639e-006 3.85799 -9.76996e-015 7.10543e-015 -23.5 0.00068345 0.00102465 -1.1e-005 1.1e-005 8.75617 -117.836 4.28934 -162.446 19.7638 1e-006 3.90799e-014 -75.5513 -8.30319e-006 1.35675e-005 18.6534 3.55271e-015 -1.42109e-014 -17.3116 1.42883 10.3666 5.09143 13.9567 3.45026e-009 99.9579 -10.5042 -6.71214 4.288 -4.44089e-015 -3.55271e-015 42 8.29002e-005 -2.40099e-006 3.85799 1.35447e-014 -7.10543e-015 -45.0006 0.000437625 0.00114649 9.14708 -0.006278 1.2e-005 -15.9339 -0.00021438 -0.000107662 8.04343 -0.006404 1.97211e-011 3.63696 8.89836e-006 -1.78923e-005 8.04383 -0.006393 1.94476e-011 7.11038 7.75155e-006 -1.83882e-005 8.04153 -0.008068 1.7657e-011 -9.17461 5.95667e-006 2.62566e-005 10.6672 1.06873 -0.001159 -21.8293 7.16074 3.62669 -1.9214 -6.40635 -8.45199 -157.094 -60.9932 130.985 19.0492 1.1724e-012 -7e-006 101.496 39.5361 -110.157 10.3706 -1.42109e-014 2e-006 -69.7558 -2.45326e-005 -2.34833e-006 22.8631 3e-006 -9.99999e-007 21.1338 8.50873 -5.50855 6.48256 0.103653 0.504496 -28.8505 -12.0849 -9.77753 3.66843 -2.13163e-014 1.06581e-014 40.107 1.2853e-005 4.71007e-009 -3.05713 -4.15067 9.4669 -163.781 82.3732 -118.519 19.0492 -9.99999e-007 1.1e-005 98.5349 -11.5268 99.8082 10.3706 1e-006 7.10543e-015 -84.7888 -3.07556e-006 -1.60449e-005 22.8631 -3e-006 4.29878e-013 46.8304 -7.61906 9.229 6.48257 0.103653 -0.504495 -27.4957 12.3098 9.49125 3.66843 -3e-006 1e-006 40.107 2.57827e-006 4.0496e-007 7.52779 -0.006416 -0.001305 4.07653 6.6298 4.5962 8.47584 -0.006526 -0.0013 15.0597 6.74393 -3.77331 8.41604 3e-006 -3e-006 -80.8673 -2.46776 -3.77515 -2.62901e-013 7e-006 1.20792e-013 -23.1098 1.37701e-015 90 -9.06717e-006 -0.499998 -3.76834e-006 -1.88049e-007 90 90 0 0 0 -99.049 1.52588e-005 -180 6.33743 14.728 3.87778 -22.989 1.37021e-015 90 0 0 0 -70.5068 -4.57764e-005 -180 0 0 0 -120.289 1.66307e-005 -2.53287e-005 0 0 0 133.74 9.23885e-007 1.32673e-006 0 0 0 1.83152 -9.1233e-007 -1.10501e-008 0 0 0 -17.65 4.63542e-005 3.81396e-007 0 0 0 -26.1943 -2.19425e-005 -1.99324e-005 15.5776 -0.000396 -4.9998e-006 -1.59028e-015 1.03368e-014 1.59028e-015 9.4055 1.04068 -6.5157 55.5056 -35.8116 86.3535 2.76858 -0.006111 -0.001365 -12.5708 11.9363 -1.71751 9.40585 1.04064 6.51574 55.5054 35.8117 -86.3536 2.76859 -0.006115 0.001365 -12.5708 -11.9363 1.71759 
-8.11491 0.449582 0 -0 -90 -0 -3.1934 -28.7019 44.7077 88.7407 -0.00618475 62.8606 0 0 0 -90 -3.50835e-015 -90 -6.47925 -3.85825 -7e-006 174.568 -0.0824864 -0.82491 10.3852 -0.008068 2.74447e-011 14.4408 -0.0824055 -0.825047 10.3851 -0.008083 2.86906e-010 14.106 -0.0823599 -0.824981 10.3851 -0.008079 5.31821e-009 14.106 -0.0824078 -0.824975 10.3851 -0.008081 1.58197e-009 14.106 -0.0823785 -0.824985 1.3e-005 -1.1e-005 -8.75617 -96.6743 -1.5357 154.037 19.7638 -2e-006 2.84217e-014 -78.6039 8.67191e-007 9.10006e-006 18.6534 3e-006 5.68434e-014 -22.1006 -2.7569 -6.31218 5.09143 13.9567 -2.49511e-006 125.03 13.6571 11.1472 4.288 -3e-006 2.94875e-013 42 -4.16285e-005 2.41541e-006 3.85799 -1.42108e-014 -3.55271e-015 -23.5 0.000688008 0.00102637 -1.1e-005 1.1e-005 8.75617 -114.846 5.19548 -162.403 19.7638 1e-006 2.13163e-014 -79.9071 -9.25573e-006 1.27321e-005 18.6534 -3.55271e-015 1.42109e-014 -14.5442 2.47668 12.1754 5.09143 13.9567 -4.92717e-008 100.607 -10.7546 -6.4902 4.288 2.66453e-015 -3.55271e-015 42 6.65568e-005 -2.60406e-006 3.85799 2.66453e-015 -7.10543e-015 -45.0006 0.000449073 0.00115821 9.14708 -0.006278 1.2e-005 -18.2688 -0.000218433 -9.03698e-005 8.04343 -0.006404 1.38183e-011 6.52473 7.98211e-006 -1.83151e-005 8.04383 -0.006393 1.3177e-011 9.99816 6.77968e-006 -1.87588e-005 8.04153 -0.008068 4.82459e-012 -6.28683 8.17543e-006 1.78894e-005 10.6672 1.06873 -0.001159 -19.0912 4.9748 2.37076 -2.3473 -5.96182 -8.66726 -159.926 -60.6217 130.764 19.0492 1.29319e-012 -7e-006 106.123 38.2107 -112.777 10.3706 -7.10543e-015 2e-006 -70.1627 -2.09489e-005 -2.20234e-006 22.8631 3e-006 -9.99999e-007 20.3049 8.80437 -3.16523 6.48256 0.103653 0.504496 -28.8505 -12.0849 -9.77752 3.66843 -2.13163e-014 5.32907e-015 40.107 1.85562e-005 -5.11244e-006 -3.09301 -4.39263 9.34513 -164.503 79.8726 -117.545 19.0492 -9.99999e-007 1.1e-005 102.785 -13.5295 102.6 10.3706 1e-006 3.55271e-015 -82.0414 -4.16899e-006 -1.58383e-005 22.8631 -3e-006 4.33431e-013 55.7008 -4.91378 5.86619 6.48257 0.103653 -0.504495 -26.5628 12.4604 9.29117 3.66843 -3e-006 1e-006 40.107 4.0363e-006 -6.67963e-007 7.52779 -0.006416 -0.001305 -1.32354 4.40546 3.37096 8.47584 -0.006526 -0.0013 19.3317 4.5348 -2.7629 8.41604 3e-006 -3e-006 -88.7497 0.978947 -2.23989 -4.47642e-013 7e-006 8.88178e-014 -23.1098 1.37701e-015 90 -9.06868e-006 -0.499998 -3.77874e-006 1.24364e-007 90 90 0 0 0 -99.049 1.52588e-005 -180 5.96946 14.6127 3.87647 -22.989 1.37021e-015 90 0 0 0 -74.3932 -1.52588e-005 -180 0 0 0 -120.289 3.2567e-006 -4.31741e-006 0 0 0 133.74 -8.81075e-007 5.30967e-007 0 0 0 1.83152 -2.46714e-007 -4.43992e-008 0 0 0 -17.65 9.67783e-006 4.95793e-007 0 0 0 -26.1943 4.52677e-005 -3.58413e-006 15.5776 -0.000396 -4.99997e-006 1.27222e-014 3.97569e-016 -0 9.4055 1.04068 -6.5157 55.9419 -36.1566 86.7879 2.76858 -0.006111 -0.001365 -12.9113 11.5724 -1.47011 9.40585 1.04064 6.51574 55.9417 36.1567 -86.788 2.76859 -0.006115 0.001365 -12.9113 -11.5724 1.47019 
